<svg width="24" height="24" viewBox="0 0 24 24" fill="none" xmlns="http://www.w3.org/2000/svg">
<mask id="mask0_167_752" style="mask-type:alpha" maskUnits="userSpaceOnUse" x="0" y="0" width="24" height="24">
<rect width="23.9286" height="23.9286" fill="#D9D9D9"/>
</mask>
<g mask="url(#mask0_167_752)">
<path d="M19.8906 20.9376C17.8135 20.9376 15.7613 20.4848 13.734 19.5792C11.7067 18.6736 9.86223 17.3899 8.20052 15.7282C6.53882 14.0665 5.25515 12.222 4.34952 10.1947C3.44389 8.16743 2.99107 6.11522 2.99107 4.03809C2.99107 3.73898 3.09078 3.48972 3.29018 3.29032C3.48959 3.09091 3.73884 2.99121 4.03795 2.99121H8.07589C8.30853 2.99121 8.51625 3.07014 8.69903 3.228C8.88182 3.38587 8.98983 3.57281 9.02307 3.78883L9.67113 7.27841C9.70437 7.54429 9.69606 7.76862 9.64621 7.9514C9.59636 8.13419 9.50496 8.29205 9.37203 8.42499L6.95424 10.8677C7.28658 11.4825 7.68124 12.0766 8.13821 12.6499C8.59518 13.2232 9.09784 13.7757 9.64621 14.3074C10.1613 14.8226 10.7014 15.3003 11.2664 15.7407C11.8314 16.181 12.4296 16.584 13.061 16.9495L15.404 14.6065C15.5536 14.457 15.7488 14.3448 15.9898 14.27C16.2307 14.1953 16.4675 14.1745 16.7002 14.2077L20.1399 14.9056C20.3725 14.9721 20.5636 15.0926 20.7132 15.2671C20.8627 15.4415 20.9375 15.6368 20.9375 15.8528V19.8908C20.9375 20.1899 20.8378 20.4391 20.6384 20.6385C20.439 20.8379 20.1897 20.9376 19.8906 20.9376Z" fill="white"/>
</g>
</svg>
