<svg width="12" height="12" viewBox="0 0 12 12" fill="none" xmlns="http://www.w3.org/2000/svg">
<path d="M0.199561 3.88131H2.60432V11.6843H0.199561V3.88131ZM1.39695 0C2.16528 0 2.78393 0.635124 2.78393 1.4013C2.78393 2.16749 2.16528 2.81269 1.39695 2.81269C0.62863 2.81269 0 2.17757 0 1.4013C0 0.625042 0.618651 0 1.39695 0Z" fill="white"/>
<path d="M4.10938 3.881H6.41434V4.94962H6.44428C6.76358 4.33466 7.55186 3.68945 8.71931 3.68945C11.154 3.68945 11.593 5.30247 11.593 7.40946V11.6839H9.19827V7.89337C9.19827 6.98605 9.17831 5.82669 7.95099 5.82669C6.72367 5.82669 6.51412 6.81467 6.51412 7.83288V11.694H4.11935V3.881H4.10938Z" fill="white"/>
</svg>
