<svg width="24" height="25" viewBox="0 0 24 25" fill="none" xmlns="http://www.w3.org/2000/svg">
<mask id="mask0_167_755" style="mask-type:alpha" maskUnits="userSpaceOnUse" x="0" y="0" width="24" height="25">
<rect y="0.428711" width="23.9286" height="23.9286" fill="#D9D9D9"/>
</mask>
<g mask="url(#mask0_167_755)">
<path d="M11.9643 12.3931C12.5127 12.3931 12.9821 12.1978 13.3726 11.8073C13.7631 11.4168 13.9583 10.9474 13.9583 10.399C13.9583 9.85068 13.7631 9.38125 13.3726 8.99075C12.9821 8.60024 12.5127 8.40499 11.9643 8.40499C11.4159 8.40499 10.9465 8.60024 10.556 8.99075C10.1655 9.38125 9.97024 9.85068 9.97024 10.399C9.97024 10.9474 10.1655 11.4168 10.556 11.8073C10.9465 12.1978 11.4159 12.3931 11.9643 12.3931ZM11.9643 22.3633C9.28894 20.0868 7.29074 17.9723 5.96968 16.0198C4.64863 14.0673 3.9881 12.2602 3.9881 10.5984C3.9881 8.10589 4.78987 6.12015 6.39342 4.64123C7.99696 3.16231 9.85392 2.42285 11.9643 2.42285C14.0747 2.42285 15.9316 3.16231 17.5352 4.64123C19.1387 6.12015 19.9405 8.10589 19.9405 10.5984C19.9405 12.2602 19.28 14.0673 17.9589 16.0198C16.6378 17.9723 14.6396 20.0868 11.9643 22.3633Z" fill="white"/>
</g>
</svg>
