<svg width="24" height="24" viewBox="0 0 24 24" fill="none" xmlns="http://www.w3.org/2000/svg">
<mask id="mask0_167_758" style="mask-type:alpha" maskUnits="userSpaceOnUse" x="0" y="0" width="24" height="24">
<rect x="0.0714111" width="23.9286" height="23.9286" fill="#D9D9D9"/>
</mask>
<g mask="url(#mask0_167_758)">
<path d="M4.05951 19.9407C3.51114 19.9407 3.04171 19.7454 2.65121 19.3549C2.26071 18.9644 2.06546 18.495 2.06546 17.9466V5.98233C2.06546 5.43397 2.26071 4.96453 2.65121 4.57403C3.04171 4.18353 3.51114 3.98828 4.05951 3.98828H20.0119C20.5603 3.98828 21.0297 4.18353 21.4202 4.57403C21.8107 4.96453 22.0059 5.43397 22.0059 5.98233V17.9466C22.0059 18.495 21.8107 18.9644 21.4202 19.3549C21.0297 19.7454 20.5603 19.9407 20.0119 19.9407H4.05951ZM12.0357 12.9615L20.0119 7.97638V5.98233L12.0357 10.9674L4.05951 5.98233V7.97638L12.0357 12.9615Z" fill="white"/>
</g>
</svg>
