<svg width="51" height="70" viewBox="0 0 51 70" fill="none" xmlns="http://www.w3.org/2000/svg">
<path d="M19.7617 55.1152C19.7617 57.3288 19.0618 59.054 17.6621 60.291C16.2624 61.4954 14.6348 62.0977 12.7793 62.0977C10.8262 62.0977 9.14974 61.4954 7.75 60.291C6.38281 59.054 5.69922 57.3288 5.69922 55.1152C5.69922 53.2598 6.2526 51.5508 7.35938 49.9883L20.3965 30.1152L23.1797 32.1172L11.3633 49.5L11.5586 49.3047C12.112 48.9792 12.9258 48.8164 14 48.8164C15.5951 48.8164 16.946 49.3698 18.0527 50.4766C19.1921 51.5508 19.7617 53.097 19.7617 55.1152Z" fill="#A10101"/>
<path d="M42.7617 55.1152C42.7617 57.3288 42.0618 59.054 40.6621 60.291C39.2624 61.4954 37.6348 62.0977 35.7793 62.0977C33.8262 62.0977 32.1497 61.4954 30.75 60.291C29.3828 59.054 28.6992 57.3288 28.6992 55.1152C28.6992 53.2598 29.2526 51.5508 30.3594 49.9883L43.3965 30.1152L46.1797 32.1172L34.3633 49.5L34.5586 49.3047C35.112 48.9792 35.9258 48.8164 37 48.8164C38.5951 48.8164 39.946 49.3698 41.0527 50.4766C42.1921 51.5508 42.7617 53.097 42.7617 55.1152Z" fill="#A10101"/>
</svg>
