<svg width="174" height="66" viewBox="0 0 174 66" fill="none" xmlns="http://www.w3.org/2000/svg">
<g clip-path="url(#clip0_178_70)">
<path d="M51.4586 37.3587H44.1608L51.4586 38.7782V37.3587Z" fill="#021B3A"/>
<path d="M39.6094 30.9292H43.1551C44.8506 30.9292 46.5526 30.9681 48.2675 31.0394C49.9823 31.1107 51.6778 31.331 53.3476 31.694V30.2227H35.0128C35.4898 30.5662 35.7284 31.0394 35.7284 31.6421V45.1105C35.7284 45.3827 35.6703 45.7003 35.5479 46.0632C35.4254 46.4262 35.2384 46.7373 34.9805 46.9901H53.3476V45.4929C51.6778 45.8558 49.9823 46.0762 48.2675 46.1605C46.5526 46.2447 44.8506 46.2836 43.1551 46.2836H39.6094V30.9292Z" fill="#021B3A"/>
<path d="M106.856 30.2746C107.075 30.5274 107.211 30.8061 107.262 31.1042C107.314 31.4023 107.346 31.7005 107.346 31.9921V39.5754C107.346 40.1911 107.288 40.8198 107.166 41.455C107.043 42.0902 106.843 42.7059 106.547 43.2957C106.257 43.8855 105.883 44.4299 105.425 44.929C104.967 45.4281 104.394 45.8494 103.697 46.1994C102.788 46.6336 101.796 46.854 100.732 46.854C99.668 46.854 98.7268 46.6466 97.8307 46.2253C97.1151 45.9012 96.5091 45.4864 96.0062 44.9809C95.5034 44.4818 95.0972 43.9374 94.7685 43.3605C94.4397 42.7837 94.2076 42.1614 94.0658 41.5068C93.9239 40.8522 93.853 40.2041 93.853 39.5689V31.882C93.853 31.6292 93.9046 31.357 94.0013 31.0653C94.098 30.7736 94.2463 30.5144 94.4397 30.2746H90.3073C90.5007 30.5144 90.636 30.7542 90.7134 31.0135C90.7908 31.2727 90.8294 31.532 90.8294 31.8042V39.5754C90.8294 40.9948 91.0422 42.1874 91.4677 43.1466C91.8932 44.1059 92.5121 44.8836 93.3373 45.467C94.1625 46.0503 95.1875 46.4651 96.4124 46.7049C97.6373 46.9512 99.0427 47.0743 100.629 47.0743C102.215 47.0743 103.607 46.9447 104.813 46.679C106.018 46.4132 107.03 45.9919 107.856 45.4086C108.681 44.8253 109.306 44.054 109.732 43.0883C110.157 42.1226 110.363 40.9494 110.363 39.5689V31.9597C110.363 31.6681 110.383 31.3764 110.428 31.0848C110.473 30.7931 110.589 30.5209 110.789 30.2681H106.85L106.856 30.2746Z" fill="#021B3A"/>
<path d="M21.6162 36.4643C21.4422 35.881 21.2036 35.3301 20.9006 34.7986C20.3591 33.9236 19.6628 33.1847 18.8183 32.5755C17.9738 31.9662 17.039 31.4801 16.0204 31.1172C15.0018 30.7542 13.9252 30.4885 12.797 30.3264C11.6688 30.1644 10.5406 30.0801 9.41237 30.0801H0.0322342C0.270767 30.2422 0.464172 30.4366 0.618896 30.6505C0.767173 30.8709 0.844535 31.1236 0.844535 31.4153V45.1623C0.844535 45.5253 0.780067 45.8494 0.65113 46.1281C0.522193 46.4068 0.303001 46.6531 0 46.8475H9.83142C10.9596 46.8475 12.0749 46.7503 13.1709 46.5494C14.2668 46.3484 15.2919 46.0438 16.246 45.6355C17.2001 45.2272 18.0769 44.7022 18.8699 44.054C19.6628 43.4124 20.3204 42.6476 20.8426 41.779C21.5389 40.6707 21.887 39.4782 21.887 38.2078C21.887 37.6245 21.7967 37.0412 21.6291 36.4643H21.6162ZM17.9222 41.5911C17.4967 42.5892 16.8971 43.4642 16.1171 44.2096C15.337 44.9549 14.3893 45.5447 13.2676 45.979C12.1458 46.4132 10.8823 46.6336 9.47684 46.6336H4.8867V30.2162H9.38014C10.792 30.2162 12.062 30.4301 13.1902 30.8579C14.3184 31.2857 15.2854 31.869 16.0848 32.6014C16.8907 33.3403 17.5031 34.2023 17.9222 35.194C18.3477 36.1856 18.5604 37.255 18.5604 38.3958C18.5604 39.5365 18.3477 40.5865 17.9222 41.5846V41.5911Z" fill="#021B3A"/>
<path d="M78.2581 46.2642C78.0711 46.3808 77.852 46.4392 77.5876 46.4392H70.6573V40.917C70.6573 39.9448 70.6702 38.9013 70.6831 37.7541C70.7024 35.9264 70.7282 33.8523 70.7475 31.5255C70.7475 31.2922 70.8249 31.0459 70.9732 30.7866C71.1215 30.5338 71.3084 30.3135 71.5276 30.132H66.4475C66.6667 30.3524 66.8408 30.6116 66.9826 30.9227C67.1244 31.2338 67.1953 31.4866 67.1953 31.6875V45.0781C67.1953 45.3503 67.1373 45.6744 67.0148 46.0438C66.8988 46.4132 66.7054 46.7308 66.4475 46.9836H78.7223V45.8364C78.5933 45.9984 78.4322 46.141 78.2517 46.2577L78.2581 46.2642Z" fill="#021B3A"/>
<path d="M63.0952 66C62.747 66 62.4376 65.9287 62.1733 65.7861C61.9089 65.6435 61.7026 65.4361 61.5608 65.1769C61.4125 64.9111 61.3416 64.6065 61.3416 64.25C61.3416 63.8935 61.4125 63.5824 61.5608 63.3232C61.7091 63.0574 61.9089 62.8565 62.1733 62.7139C62.4376 62.5713 62.747 62.5 63.0952 62.5C63.4175 62.5 63.7012 62.5519 63.9461 62.6621C64.1911 62.7723 64.3845 62.9213 64.5199 63.1223C64.6553 63.3232 64.7262 63.5565 64.7262 63.8352V63.9H64.1202V63.8352C64.1202 63.576 64.0364 63.375 63.8688 63.2389C63.7012 63.1028 63.4433 63.038 63.1016 63.038C62.8373 63.038 62.6116 63.0834 62.4376 63.1676C62.2635 63.2519 62.1346 63.388 62.0508 63.5695C61.967 63.751 61.9218 63.9843 61.9218 64.2695C61.9218 64.5546 61.967 64.7815 62.0508 64.963C62.1346 65.1445 62.2635 65.2806 62.4376 65.3648C62.6116 65.4491 62.8308 65.4945 63.1016 65.4945C63.4433 65.4945 63.7012 65.4232 63.8688 65.2935C64.0364 65.1574 64.1202 64.9565 64.1202 64.6972V64.6324H64.7262V64.6972C64.7262 64.9695 64.6553 65.2028 64.5199 65.4037C64.3845 65.6046 64.1911 65.7602 63.9461 65.8639C63.7012 65.9676 63.4175 66.0259 63.0952 66.0259V66Z" fill="#021B3A"/>
<path d="M68.7232 65.9481H68.1172L69.6323 62.5389H70.3994L71.9144 65.9481H71.2955L70.2254 63.5306L70.0255 63.0445H69.9868L69.787 63.5306L68.7168 65.9481H68.7232ZM71.1344 65.0602H68.8715V64.5676H71.1344V65.0602Z" fill="#021B3A"/>
<path d="M78.4321 63.0315H75.2216V62.5389H78.4321V63.0315ZM77.0976 65.9481H76.5561V62.5389H77.0976V65.9481Z" fill="#021B3A"/>
<path d="M82.5388 65.9481H81.9908V62.5389H82.5388V65.9481ZM84.705 63.0315H82.1585V62.5389H84.705V63.0315ZM84.634 64.4769H82.1649V63.9908H84.634V64.4769ZM84.705 65.9481H82.1585V65.4556H84.705V65.9481Z" fill="#021B3A"/>
<path d="M88.9211 65.9481H88.3732V62.5389H90.1332C90.391 62.5389 90.6102 62.5778 90.7972 62.6556C90.9841 62.7334 91.126 62.85 91.2291 62.9991C91.3258 63.1482 91.3774 63.3297 91.3774 63.5435C91.3774 63.7315 91.3387 63.8935 91.2549 64.0296C91.1775 64.1658 91.0615 64.2695 90.9132 64.3472C90.7649 64.425 90.5844 64.4704 90.3717 64.4833V64.5158C90.5006 64.5482 90.6038 64.6065 90.6811 64.6843C90.7521 64.762 90.823 64.8528 90.881 64.963L91.4483 65.9481H90.823L90.2814 65.0083C90.2299 64.9176 90.1783 64.8463 90.1138 64.788C90.0558 64.7296 89.9784 64.6907 89.8946 64.6648C89.8044 64.6389 89.6883 64.6259 89.5465 64.6259H88.9211V65.9481ZM88.9211 63.0315V64.2046H90.1332C90.3588 64.2046 90.5329 64.1593 90.6425 64.075C90.7585 63.9843 90.8165 63.8352 90.8165 63.6213C90.8165 63.4074 90.7585 63.2648 90.6425 63.1741C90.5264 63.0834 90.3588 63.038 90.1332 63.038H88.9211V63.0315Z" fill="#021B3A"/>
<path d="M95.5678 65.9481H95.0198V62.5389H95.5678V65.9481Z" fill="#021B3A"/>
<path d="M99.8615 65.9481H99.3135V62.5389H99.9001L101.422 64.5352L101.86 65.1704H101.899L101.873 64.5546V62.5389H102.421V65.9481H101.834L100.306 63.9584L99.8808 63.3556H99.8421L99.8615 63.9454V65.9481Z" fill="#021B3A"/>
<path d="M107.739 66C107.411 66 107.121 65.9287 106.869 65.7861C106.618 65.6435 106.424 65.4361 106.289 65.1769C106.154 64.9111 106.083 64.6065 106.083 64.25C106.083 63.8935 106.16 63.5824 106.308 63.3232C106.457 63.0639 106.669 62.8565 106.934 62.7139C107.204 62.5713 107.52 62.5 107.881 62.5C108.204 62.5 108.487 62.5519 108.732 62.6556C108.977 62.7593 109.171 62.9084 109.306 63.0963C109.441 63.2843 109.512 63.5111 109.512 63.7769V63.8158H108.906V63.7769C108.906 63.5306 108.823 63.3491 108.648 63.2195C108.474 63.0899 108.217 63.0315 107.862 63.0315C107.591 63.0315 107.366 63.0769 107.185 63.1611C107.011 63.2454 106.876 63.3815 106.785 63.563C106.695 63.7445 106.656 63.9778 106.656 64.263C106.656 64.5482 106.702 64.775 106.785 64.9565C106.869 65.138 106.998 65.2741 107.172 65.3583C107.346 65.4426 107.565 65.488 107.836 65.488C108.107 65.488 108.326 65.462 108.487 65.4102C108.655 65.3583 108.771 65.2741 108.848 65.1509C108.926 65.0343 108.964 64.8787 108.964 64.6843V64.5741L109.506 64.5871V64.6648L109.055 65.2222H108.971C108.926 65.3907 108.842 65.5333 108.732 65.65C108.623 65.7667 108.487 65.8574 108.32 65.9222C108.152 65.9806 107.959 66.013 107.733 66.013L107.739 66ZM109.506 64.6259H107.707V64.2111H109.506V64.6259ZM109.506 65.9481H109.009V65.0796L108.964 65.0083V64.2695H109.506V65.9417V65.9481Z" fill="#021B3A"/>
<path d="M129.749 41.2152L123.438 46.9836H126.042C125.978 46.841 125.945 46.7049 125.945 46.5753C125.945 46.3549 125.997 46.1345 126.094 45.9077C126.19 45.6808 126.326 45.4929 126.5 45.3503L129.755 41.2152H129.749Z" fill="#021B3A"/>
<path d="M142.933 46.9901L134.404 37.3911L141.759 30.2162H139.09C139.239 30.3653 139.316 30.5598 139.316 30.819C139.316 31.1301 139.232 31.4283 139.071 31.7199C138.91 32.0116 138.716 32.2579 138.504 32.4588C138.355 32.6079 138.091 32.8607 137.724 33.2366C137.356 33.6125 136.976 33.9949 136.583 34.3967C136.389 34.5977 136.202 34.7856 136.028 34.9671C135.854 35.1486 135.693 35.3106 135.538 35.4597C135.474 35.531 135.416 35.5958 135.358 35.6477C135.306 35.6995 135.255 35.7449 135.209 35.7838C135.164 35.8227 135.145 35.8551 135.145 35.8939C135.145 35.8745 135.132 35.868 135.113 35.868L134.03 36.9569L133.295 36.0819L129.452 31.856C129.188 31.5838 129.059 31.3051 129.059 31.0135C129.059 30.7218 129.175 30.4625 129.42 30.2227H124.34L124.353 30.2422L132.347 39.3356L137.266 45.117C137.395 45.2596 137.517 45.4605 137.64 45.7197C137.762 45.979 137.82 46.1994 137.82 46.4003C137.82 46.5818 137.769 46.7827 137.659 47.003H142.933V46.9901Z" fill="#021B3A"/>
<path d="M172.111 37.3587H164.807L172.111 38.7782V37.3587Z" fill="#021B3A"/>
<path d="M160.255 30.9292H163.801C165.497 30.9292 167.199 30.9681 168.913 31.0394C170.628 31.1107 172.324 31.331 173.994 31.694V30.2227H155.659C156.136 30.5662 156.374 31.0394 156.374 31.6421V45.1105C156.374 45.3827 156.316 45.7003 156.194 46.0632C156.071 46.4262 155.884 46.7373 155.627 46.9901H173.994V45.4929C172.324 45.8558 170.628 46.0762 168.913 46.1605C167.199 46.2447 165.497 46.2836 163.801 46.2836H160.255V30.9292Z" fill="#021B3A"/>
<path d="M122.464 10.7202C121.723 9.44987 120.53 8.24433 118.873 7.09712C117.223 5.94992 115.018 4.89993 112.252 3.95365C109.487 3.00088 106.128 2.22312 102.163 1.61387C99.7712 1.27035 97.2569 1.00462 94.6137 0.810174C92.6603 0.667583 90.7069 0.596288 88.7535 0.5574V0.129628C88.7535 0.0583325 88.6955 0 88.6246 0H85.356C85.2851 0 85.2271 0.0583325 85.2271 0.129628V0.531474C80.0052 0.589806 75.0798 0.965727 70.4832 1.67868C66.5249 2.26201 63.0758 3.00088 60.1489 3.89532C57.2221 4.78327 54.8239 5.76844 52.9736 6.83787C51.1169 7.91378 49.7309 9.06098 48.8283 10.2924C47.9193 11.5239 47.468 12.7748 47.468 14.0452C50.382 7.64804 64.5263 5.41196 74.7961 4.64068C74.7961 4.64068 74.809 4.64068 74.8155 4.64068C76.0468 4.54994 77.2137 4.47864 78.3032 4.42031C78.3548 4.42031 78.3999 4.42031 78.4515 4.41383C82.8031 4.19994 85.8331 4.23883 85.8331 4.23883C85.8331 4.23883 92.4476 4.12216 100.203 4.93882C100.261 4.93882 100.319 4.95178 100.377 4.95178C100.429 4.95178 100.474 4.96474 100.519 4.97123C101.402 5.06845 102.298 5.17863 103.201 5.2953C103.459 5.3277 103.717 5.36659 103.968 5.399C104.697 5.5027 105.431 5.61936 106.16 5.74251C106.508 5.80084 106.843 5.85918 107.185 5.92399C107.843 6.04714 108.494 6.17028 109.138 6.30639C109.487 6.38417 109.828 6.46195 110.163 6.53972C110.576 6.63694 110.982 6.73416 111.388 6.83787C111.633 6.90268 111.898 6.95453 112.13 7.01935C112.407 7.09712 112.645 7.1749 112.916 7.25268C113.264 7.35638 113.606 7.4536 113.948 7.56378C114.328 7.68693 114.702 7.81007 115.063 7.93322C115.276 8.00452 115.476 8.08229 115.682 8.16007C116.301 8.3934 116.881 8.63321 117.435 8.8795C117.655 8.97673 117.88 9.07395 118.093 9.17765C118.351 9.30079 118.596 9.43042 118.834 9.56005C119.183 9.74801 119.518 9.94245 119.84 10.1434C119.911 10.1887 119.988 10.2276 120.059 10.2665C120.072 10.2795 120.085 10.286 120.104 10.2989C121.536 11.2193 122.683 12.2822 123.444 13.5072C123.302 12.5739 123.025 11.6406 122.477 10.7073L122.464 10.7202Z" fill="#A10101"/>
</g>
<defs>
<clipPath id="clip0_178_70">
<rect width="174" height="66" fill="white"/>
</clipPath>
</defs>
</svg>
