<svg width="151" height="151" viewBox="0 0 151 151" fill="none" xmlns="http://www.w3.org/2000/svg">
<g clip-path="url(#clip0_167_663)">
<path d="M81.2109 11.7643L75.6452 11.2801V10.796L76.5648 10.8928C77.4359 10.9897 77.8715 10.6992 77.9199 10.1182L78.6942 1.59755C78.7426 1.0166 78.3555 0.677708 77.4843 0.629295L76.6132 0.532469V0.0483398L82.0821 0.532469C83.2436 0.629295 84.2599 0.968186 85.0827 1.54914C85.9055 2.1301 86.4862 2.80788 86.825 3.67931C87.1638 4.55074 87.309 5.56742 87.2122 6.68091C87.1154 7.79441 86.825 8.76267 86.2926 9.53728C85.7603 10.3603 85.0827 10.9413 84.1631 11.377C83.2436 11.8127 82.3241 11.9095 81.2109 11.8127V11.7643ZM79.9526 1.69438L79.1782 10.2151C79.1298 10.796 79.517 11.1349 80.3882 11.1833H80.9689C82.2756 11.377 83.3888 10.9897 84.1631 10.1666C84.9859 9.34363 85.4699 8.08489 85.6151 6.48726C85.6635 5.71266 85.6635 4.98646 85.5667 4.35709C85.4699 3.72772 85.2279 3.14677 84.9375 2.66264C84.6471 2.17851 84.2116 1.79121 83.6308 1.50073C83.0984 1.21025 82.4208 1.0166 81.6465 0.968186H81.3077C80.4849 0.87136 80.001 1.11342 79.9526 1.69438Z" fill="#FFDEAB"/>
<path d="M101.683 11.1834L99.6019 10.3603L98.1016 14.185C97.908 14.7175 98.15 15.1532 98.9728 15.4437L100.812 16.1699C101.199 16.3151 101.538 16.412 101.877 16.412C102.215 16.412 102.506 16.412 102.748 16.3151C102.99 16.2183 103.232 16.1215 103.474 15.9278C103.716 15.7342 103.909 15.5889 104.006 15.4921C104.151 15.3469 104.248 15.2016 104.393 15.008L104.684 15.2985L102.99 17.6223L94.3266 14.185L94.5202 13.7008L95.3429 14.0397C96.1657 14.3786 96.6497 14.2334 96.8433 13.7008L99.9891 5.71269C100.183 5.18015 99.8923 4.74443 99.1179 4.40554L98.2952 4.06665L98.4888 3.58252L106.765 6.8746L106.426 9.73096H106.039C106.039 9.73096 106.039 9.44049 106.039 9.34366C106.039 9.24683 106.039 9.05318 106.039 8.85953C106.039 8.66588 106.039 8.47223 105.942 8.32699C105.942 8.18175 105.845 7.9881 105.748 7.79445C105.652 7.60079 105.555 7.40714 105.41 7.2619C105.264 7.11667 105.119 6.97143 104.877 6.77777C104.684 6.63254 104.442 6.4873 104.151 6.39047L102.699 5.80952C101.925 5.51904 101.393 5.61586 101.199 6.14841L99.7471 9.82779L101.828 10.6508C102.312 10.8445 102.748 10.8445 103.087 10.6508C103.425 10.4572 103.716 10.0699 103.958 9.53731L104.151 9.05318L104.538 9.19842L102.651 13.9913L102.264 13.8461L102.457 13.3619C102.651 12.8294 102.699 12.3453 102.603 11.958C102.457 11.5707 102.167 11.2802 101.683 11.0865V11.1834Z" fill="#FFDEAB"/>
<path d="M117.461 27.0143L110.395 21.6405L110.685 21.2532L111.362 21.7857C112.04 22.3183 112.572 22.3183 112.911 21.8825L118.09 15.0563C118.429 14.5722 118.283 14.0881 117.606 13.6039L116.928 13.0714L117.219 12.6841L121.913 16.2182L121.623 16.6055L120.703 15.8793C120.026 15.3468 119.493 15.3468 119.154 15.7825L113.976 22.6087C113.637 23.0929 113.782 23.577 114.46 24.0611L115.621 24.9326C115.96 25.1746 116.299 25.3683 116.638 25.4651C116.977 25.5619 117.267 25.6103 117.557 25.6103C117.848 25.6103 118.09 25.5619 118.38 25.4651C118.67 25.3683 118.864 25.2714 119.058 25.1746C119.251 25.0778 119.396 24.981 119.59 24.8357L119.784 25.1746L117.557 26.9659L117.461 27.0143Z" fill="#FFDEAB"/>
<path d="M126.463 36.9873C125.688 35.9707 125.349 35.0024 125.495 34.131C125.64 33.2111 126.172 32.4365 127.092 31.7103L132.173 27.8373C132.609 27.4984 132.609 26.9659 132.077 26.2881L131.544 25.6103L131.931 25.3198L135.319 29.7738L134.932 30.0643L134.4 29.3865C133.867 28.7087 133.383 28.5635 132.948 28.9024L127.866 32.7754C126.269 33.9857 126.075 35.3413 127.237 36.8905C127.527 37.2778 127.818 37.5683 128.108 37.762C128.398 37.9556 128.689 38.1008 128.979 38.1977C129.27 38.2461 129.512 38.2945 129.802 38.1977C130.092 38.1977 130.334 38.0524 130.625 37.9556C130.867 37.8588 131.109 37.6651 131.399 37.4715L136.578 33.55C137.062 33.2111 137.013 32.6786 136.481 32.0008L136.045 31.4683L136.432 31.1778L139.191 34.8088L138.804 35.0992L138.368 34.5667C137.836 33.8889 137.352 33.6953 136.868 34.0342L131.689 37.9556C131.302 38.2461 130.915 38.4397 130.479 38.585C130.044 38.7302 129.608 38.7786 129.173 38.7302C128.737 38.6818 128.253 38.5366 127.769 38.2461C127.285 37.9556 126.85 37.5199 126.463 36.9873Z" fill="#FFDEAB"/>
<path d="M135.948 49.8652C135.948 49.8652 135.561 49.8168 135.464 49.8652C135.271 49.9136 135.174 50.0589 135.174 50.2525C135.174 50.4462 135.174 50.6882 135.319 50.9787L135.513 51.5597L135.029 51.7533L133.577 47.8319L134.061 47.6382L134.254 48.1223C134.254 48.1223 134.4 48.4612 134.496 48.5581C134.593 48.6549 134.69 48.8001 134.835 48.8485C134.98 48.9454 135.077 48.9938 135.222 49.0422C135.368 49.0422 135.561 49.139 135.803 49.2358L140.74 50.5914L143.886 46.3311C144.224 45.8954 144.273 45.3628 144.031 44.7334L143.837 44.2493L144.321 44.0557L146.112 48.8001L145.628 48.9938L145.434 48.4612C145.192 47.7835 144.854 47.493 144.515 47.6382C144.418 47.6382 144.321 47.735 144.273 47.8319L141.95 50.9787L145.676 51.947C145.676 51.947 145.967 51.947 146.16 51.947C146.354 51.8986 146.451 51.7533 146.499 51.6081C146.499 51.4628 146.499 51.2208 146.402 50.9787L146.209 50.4462L146.693 50.2525L148.145 54.174L147.661 54.3676L147.467 53.8835C147.37 53.593 147.225 53.3994 147.08 53.2541C146.935 53.1089 146.789 52.9636 146.644 52.9152C146.499 52.8668 146.257 52.77 145.918 52.6732L141.562 51.5113L138.078 56.2557C137.739 56.6914 137.691 57.224 137.884 57.8049L138.126 58.3859L137.642 58.5795L135.852 53.8351L136.336 53.6414L136.529 54.1256C136.771 54.8033 137.062 55.0454 137.4 54.9002C137.497 54.9002 137.594 54.8033 137.642 54.7065L140.353 51.0271L135.997 49.8652H135.948Z" fill="#FFDEAB"/>
<path d="M144.902 70.9733L144.708 68.7463L140.643 69.0368C140.062 69.0368 139.82 69.5209 139.869 70.3924L140.014 72.3773C140.014 72.7646 140.159 73.1519 140.304 73.4424C140.449 73.7329 140.595 74.0233 140.788 74.217C140.982 74.4106 141.175 74.5559 141.466 74.7011C141.708 74.8464 141.95 74.9432 142.095 74.9916C142.288 75.04 142.482 75.0884 142.676 75.1368L142.53 75.5241L139.723 74.9916L138.997 65.6963H139.53L139.578 66.5193C139.627 67.3908 139.965 67.7781 140.546 67.7297L149.064 67.1003C149.645 67.1003 149.887 66.6162 149.838 65.7447V64.8733H150.274L150.952 73.7329L148.241 74.6527L148.048 74.3138C148.048 74.3138 148.338 74.217 148.435 74.1686C148.532 74.1202 148.677 74.0233 148.871 73.9265C149.064 73.8297 149.209 73.7329 149.306 73.636C149.451 73.5392 149.548 73.394 149.693 73.2003C149.838 73.0067 149.935 72.8614 150.032 72.6678C150.129 72.4741 150.177 72.2321 150.226 71.99C150.274 71.7479 150.274 71.4575 150.226 71.167L150.129 69.6178C150.08 68.7463 149.742 68.359 149.161 68.4074L145.241 68.6979L145.434 70.9249C145.434 71.4575 145.676 71.7963 146.015 72.0384C146.354 72.2805 146.789 72.3773 147.419 72.3289H147.903V72.7162L142.724 73.1035V72.6678H143.208C143.789 72.6678 144.224 72.4741 144.515 72.1836C144.805 71.8932 144.95 71.5059 144.902 70.9733Z" fill="#FFDEAB"/>
<path d="M134.109 102.006L137.207 93.679L137.691 93.8726L137.4 94.6956C137.11 95.5186 137.207 96.0028 137.787 96.1964L145.821 99.198C146.354 99.3917 146.789 99.1012 147.08 98.2782L147.37 97.4552L147.854 97.6488L145.821 103.168L145.337 102.974L145.725 101.861C146.015 101.086 145.918 100.554 145.337 100.36L137.303 97.3583C136.771 97.1647 136.336 97.4552 136.045 98.2298L135.513 99.6337C135.368 100.021 135.319 100.36 135.271 100.747C135.271 101.086 135.271 101.425 135.416 101.667C135.513 101.909 135.61 102.151 135.803 102.393C135.948 102.635 136.142 102.829 136.287 102.974C136.432 103.119 136.578 103.265 136.771 103.362L136.481 103.652L134.158 102.006H134.109Z" fill="#FFDEAB"/>
<path d="M127.14 113.432C127.914 112.415 128.737 111.834 129.608 111.689C130.479 111.543 131.447 111.834 132.367 112.512L137.546 116.288C138.029 116.627 138.513 116.482 138.997 115.755L139.53 115.029L139.917 115.32L136.626 119.822L136.239 119.532L136.723 118.854C137.207 118.176 137.255 117.643 136.771 117.305L131.593 113.528C129.996 112.366 128.592 112.512 127.479 114.061C127.188 114.448 126.995 114.787 126.898 115.126C126.753 115.465 126.704 115.804 126.753 116.046C126.801 116.288 126.85 116.578 126.946 116.869C127.092 117.111 127.237 117.353 127.43 117.547C127.624 117.74 127.818 117.934 128.108 118.128L133.335 121.952C133.819 122.291 134.303 122.146 134.787 121.42L135.174 120.839L135.561 121.129L132.851 124.857L132.464 124.566L132.851 123.986C133.383 123.259 133.383 122.775 132.899 122.436L127.672 118.612C127.285 118.321 126.946 117.982 126.704 117.643C126.463 117.256 126.269 116.869 126.172 116.433C126.075 115.997 126.124 115.513 126.269 114.981C126.414 114.448 126.656 113.916 127.092 113.383L127.14 113.432Z" fill="#FFDEAB"/>
<path d="M117.509 126.212C117.509 126.212 117.461 125.825 117.364 125.728C117.267 125.583 117.122 125.535 116.928 125.535C116.735 125.535 116.541 125.68 116.251 125.874L115.767 126.212L115.476 125.825L118.816 123.308L119.106 123.695L118.719 123.985C118.719 123.985 118.429 124.227 118.332 124.324C118.235 124.421 118.187 124.566 118.138 124.712C118.09 124.857 118.09 125.002 118.09 125.147C118.09 125.293 118.09 125.486 118.09 125.728L118.235 130.86L123.22 132.651C123.752 132.845 124.285 132.748 124.769 132.361L125.156 132.07L125.446 132.458L121.429 135.508L121.139 135.12L121.623 134.781C122.204 134.346 122.397 133.958 122.155 133.668C122.107 133.571 122.01 133.523 121.913 133.474L118.235 132.167L118.38 135.992C118.38 135.992 118.38 136.282 118.525 136.428C118.671 136.573 118.767 136.67 118.961 136.67C119.106 136.67 119.3 136.573 119.542 136.379L119.977 136.04L120.268 136.428L116.928 138.945L116.638 138.558L117.025 138.267C117.025 138.267 117.412 137.928 117.557 137.735C117.703 137.541 117.751 137.396 117.751 137.202C117.751 137.008 117.751 136.766 117.751 136.428L117.654 131.925L112.088 129.94C111.556 129.747 111.072 129.843 110.54 130.231L110.056 130.618L109.765 130.231L113.782 127.181L114.073 127.568L113.686 127.858C113.105 128.294 112.96 128.633 113.202 128.924C113.25 129.02 113.347 129.069 113.492 129.117L117.799 130.666L117.654 126.164L117.509 126.212Z" fill="#FFDEAB"/>
<path d="M97.7628 135.701C98.9727 135.266 99.9891 135.217 100.763 135.605C101.586 135.992 102.215 136.718 102.603 137.832L104.829 143.835C105.022 144.367 105.555 144.513 106.329 144.222L107.152 143.932L107.345 144.416L102.119 146.352L101.925 145.868L102.748 145.578C103.57 145.287 103.861 144.852 103.619 144.319L101.393 138.316C100.715 136.428 99.4567 135.847 97.666 136.525C97.2304 136.67 96.8432 136.863 96.5529 137.105C96.2625 137.348 96.0205 137.541 95.8753 137.783C95.7301 138.025 95.6333 138.267 95.5849 138.558C95.5365 138.848 95.5849 139.139 95.5849 139.381C95.5849 139.671 95.7301 139.962 95.8269 140.252L98.1016 146.352C98.2952 146.885 98.8275 147.03 99.6019 146.74L100.231 146.498L100.425 146.982L96.1173 148.579L95.9237 148.095L96.5529 147.853C97.3756 147.563 97.666 147.127 97.4724 146.594L95.1977 140.494C95.0525 140.059 94.9557 139.575 94.9557 139.139C94.9557 138.703 95.0041 138.267 95.1977 137.832C95.3913 137.396 95.6333 137.009 96.0689 136.621C96.5045 136.234 96.9884 135.944 97.666 135.701H97.7628Z" fill="#FFDEAB"/>
<path d="M79.1782 139.72L85.0343 139.333V139.865L84.2115 139.913C83.3404 139.962 82.9532 140.301 83.0016 140.882L83.5824 149.451C83.5824 150.032 84.0663 150.274 84.9375 150.225H85.8086V150.661L80.5333 151C79.8074 151 79.1782 151 78.6458 151C78.1134 150.952 77.6295 150.806 77.1939 150.613C76.7583 150.419 76.4195 150.129 76.2259 149.79C76.0324 149.451 75.8388 148.967 75.8388 148.434C75.8388 147.998 75.8388 147.563 76.0324 147.224C76.1775 146.837 76.4195 146.546 76.7099 146.304C77.0003 146.062 77.3391 145.868 77.7263 145.723C78.1134 145.578 78.549 145.433 79.033 145.384L76.6131 141.608C76.3711 141.221 76.1292 140.93 75.8872 140.785C75.6452 140.64 75.3548 140.543 75.016 140.591H74.4352V140.107L77.0487 139.913L80.3881 145.19L82.0336 145.094L81.7433 140.979C81.7433 140.398 81.2593 140.156 80.3881 140.204L79.2266 140.301V139.817L79.1782 139.72ZM77.3875 148.289C77.3875 148.725 77.5327 149.112 77.6779 149.402C77.8231 149.693 78.0651 149.935 78.4038 150.08C78.7426 150.225 79.033 150.322 79.4202 150.419C79.8074 150.467 80.2429 150.467 80.7753 150.419H81.0657C81.9368 150.322 82.324 150.032 82.2756 149.451L82.0336 145.529L80.5817 145.626C80.1945 145.626 79.8558 145.675 79.517 145.771C79.1782 145.868 78.9362 145.917 78.5974 146.062C78.307 146.207 78.065 146.352 77.8715 146.546C77.6779 146.74 77.5327 146.982 77.4359 147.272C77.3391 147.563 77.2907 147.902 77.3391 148.289H77.3875Z" fill="#FFDEAB"/>
<path d="M56.4314 147.272L60.4968 142.576L61.126 139.671C61.2228 139.09 60.884 138.751 60.0612 138.558L59.1901 138.364L59.2869 137.88L64.7558 139.042L64.659 139.526L63.8362 139.332C63.0135 139.139 62.5295 139.332 62.3843 139.913L61.7551 142.818L63.7878 149.112C63.9814 149.644 64.3686 149.983 64.9978 150.128L65.4817 150.225L65.3849 150.709L60.4968 149.693L60.5936 149.209L61.1744 149.354C61.9003 149.499 62.2875 149.354 62.3843 149.015C62.3843 148.918 62.3843 148.821 62.3843 148.724L60.5936 143.302L57.109 147.417C57.109 147.417 56.9154 147.708 56.9154 147.805C56.8186 148.192 57.1574 148.434 57.8833 148.628L58.3189 148.724L58.2221 149.209L54.1083 148.337L54.2051 147.853L54.8343 147.998C54.8343 147.998 55.2215 148.047 55.3183 148.047C55.4151 148.047 55.5603 148.047 55.7055 147.95C55.8506 147.853 55.9474 147.805 55.9958 147.708C56.0442 147.611 56.1894 147.466 56.383 147.272H56.4314Z" fill="#FFDEAB"/>
<path d="M29.6676 135.847C29.3288 135.605 29.0385 135.314 28.7965 135.072C28.5545 134.83 28.3609 134.588 28.2641 134.394C28.1673 134.201 28.0221 134.104 27.9253 134.007C27.8285 133.959 27.6833 133.91 27.5381 133.862H27.0542L27.0058 133.813L28.2157 130.715L28.6029 130.812C28.6029 130.812 28.5061 131.247 28.4577 131.393C28.4577 131.586 28.4093 131.78 28.3609 132.022C28.3609 132.264 28.3609 132.506 28.3609 132.7C28.3609 132.894 28.3609 133.136 28.4577 133.378C28.5545 133.62 28.6029 133.862 28.6997 134.055C28.7965 134.249 28.9417 134.491 29.1353 134.685C29.3288 134.878 29.5224 135.121 29.7644 135.266C30.3936 135.75 31.0712 135.992 31.7971 135.992C32.5231 135.992 33.249 135.798 33.975 135.363C34.701 134.927 35.3301 134.298 35.9593 133.523C36.5885 132.748 36.9756 131.925 37.1692 131.102C37.3628 130.279 37.3628 129.505 37.1692 128.827C36.9272 128.101 36.5401 127.52 35.9109 127.036C35.0397 126.406 34.1686 126.116 33.2974 126.213C32.4263 126.309 31.5551 126.697 30.684 127.374L30.4904 127.036C30.8292 126.745 31.2163 126.455 31.6035 126.261C31.9907 126.067 32.3779 125.874 32.8135 125.777C33.249 125.68 33.6846 125.632 34.0718 125.632C34.5074 125.632 34.9429 125.728 35.3785 125.922C35.8141 126.116 36.2981 126.358 36.7337 126.648C37.3628 127.132 37.8468 127.665 38.1856 128.294C38.5244 128.924 38.7179 129.553 38.7663 130.231C38.8147 130.909 38.7179 131.586 38.476 132.264C38.234 132.942 37.8952 133.62 37.4112 134.249C36.7337 135.169 35.9593 135.847 35.0881 136.282C34.217 136.718 33.2974 136.96 32.3295 136.863C31.3615 136.767 30.4904 136.476 29.6676 135.847Z" fill="#FFDEAB"/>
<path d="M28.0221 119.289L27.6349 119.58L27.3446 119.193C27.1026 118.854 26.8606 118.66 26.667 118.612C26.425 118.563 26.1346 118.612 25.699 118.708L15.9228 121.565L15.0516 121.178L20.9561 111.979C21.2465 111.543 21.1497 111.059 20.7625 110.527L20.4721 110.139L20.8593 109.849L23.9083 113.819L23.5212 114.109L23.1824 113.625C22.6984 112.996 22.2628 112.802 21.9724 113.044C21.924 113.093 21.8272 113.141 21.7788 113.238L20.2301 115.562L22.8436 118.999L25.3603 118.224C25.3603 118.224 25.6506 118.127 25.7474 118.031C26.0378 117.789 25.9894 117.401 25.5539 116.82L25.2151 116.336L25.6022 116.046L28.1189 119.338L28.0221 119.289ZM22.2144 119.096L19.843 115.997L16.6971 120.79L22.2144 119.096Z" fill="#FFDEAB"/>
<path d="M14.9064 97.0195L16.9391 102.103L16.4551 102.297L16.1648 101.522C15.826 100.747 15.4388 100.457 14.858 100.651L6.92084 103.846C6.38847 104.039 6.29168 104.572 6.58206 105.347L6.67886 105.637C6.77565 105.928 6.92084 106.121 7.06604 106.363C7.21123 106.605 7.35642 106.751 7.55001 106.896C7.7436 107.041 7.88879 107.138 8.08238 107.235C8.27597 107.331 8.46956 107.38 8.61475 107.428C8.75995 107.428 8.95354 107.477 9.14713 107.525C9.34072 107.525 9.53431 107.525 9.6311 107.525C9.77629 107.525 9.92148 107.525 10.0667 107.525V107.912L7.21123 108.251L3.58142 99.2465L5.9045 97.5521L6.19488 97.8425C6.19488 97.8425 5.9529 98.0362 5.8561 98.133C5.75931 98.2299 5.66251 98.3267 5.51732 98.4719C5.37213 98.6172 5.27533 98.7624 5.17854 98.9076C5.08174 99.0529 4.98495 99.1981 4.93655 99.4402C4.83975 99.6338 4.79136 99.8275 4.79136 100.07C4.79136 100.263 4.79136 100.505 4.79136 100.747C4.79136 100.989 4.88815 101.28 4.98495 101.522L5.08174 101.812C5.42052 102.587 5.8077 102.877 6.38847 102.684L14.3257 99.4886C14.858 99.2949 14.9548 98.7624 14.6644 97.9878L14.374 97.2616L14.858 97.0679L14.9064 97.0195Z" fill="#FFDEAB"/>
<path d="M6.14648 81.9147L6.38847 84.1417L10.4538 83.7543C11.0346 83.7059 11.2766 83.2702 11.1798 82.3988L10.9862 80.4139C10.9862 80.0266 10.841 79.6392 10.6958 79.3488C10.5506 79.0583 10.3571 78.7678 10.2119 78.6226C10.0667 78.4773 9.82468 78.2837 9.5343 78.1384C9.29231 77.9932 9.05032 77.8964 8.85673 77.848C8.66315 77.7996 8.46955 77.7511 8.27597 77.7027L8.42116 77.3154L11.2282 77.7511L12.1478 87.0464H11.6638L11.567 86.2234C11.4702 85.352 11.1314 84.9647 10.5506 85.0131L2.0327 85.8361C1.45193 85.8845 1.20994 86.3687 1.30673 87.1917L1.40353 88.0631H0.919555L0.0484009 79.252L2.75866 78.2837L2.95225 78.6226C2.95225 78.6226 2.66186 78.7194 2.56507 78.8162C2.46827 78.8646 2.32308 78.9615 2.12949 79.0583C1.9359 79.1551 1.79071 79.2519 1.69391 79.3972C1.59712 79.5424 1.45193 79.6392 1.30673 79.8329C1.16154 80.0266 1.06475 80.1718 0.967952 80.3654C0.871157 80.5591 0.82276 80.8012 0.774362 81.0432C0.774362 81.2853 0.774362 81.5758 0.774362 81.8662L0.919555 83.4155C1.01635 84.2869 1.35513 84.6742 1.9359 84.6258L5.85609 84.2385L5.61411 82.0115C5.56571 81.4789 5.37212 81.14 5.03334 80.898C4.69455 80.6559 4.21058 80.6075 3.62981 80.6559H3.14584V80.2686L8.27597 79.7845V80.2202H7.84039C7.25962 80.2686 6.82404 80.4623 6.53366 80.7527C6.24327 81.0432 6.14648 81.4305 6.19488 81.9631L6.14648 81.9147Z" fill="#FFDEAB"/>
<path d="M12.4381 63.663L11.3734 69.4241L10.8894 69.3273L11.0346 68.4559C11.1798 67.6329 10.9862 67.1487 10.4054 67.0519L1.98428 65.5511C1.40352 65.4543 1.06473 65.8416 0.919541 66.6646L0.774349 67.536L0.290375 67.4392L1.20993 62.259C1.35512 61.5328 1.50031 60.9519 1.6939 60.4193C1.88749 59.8868 2.12948 59.4511 2.41986 59.1122C2.71025 58.7249 3.04903 58.4828 3.48461 58.3376C3.87178 58.1923 4.35576 58.1923 4.88813 58.2892C5.32371 58.386 5.71089 58.5312 6.04967 58.7733C6.38845 59.0154 6.63044 59.3058 6.77563 59.6447C6.92082 59.9836 7.06602 60.3709 7.11441 60.8066C7.16281 61.2424 7.16281 61.6781 7.11441 62.1622L11.325 60.7098C11.7606 60.5646 12.0993 60.3709 12.2929 60.1773C12.4865 59.9836 12.6317 59.7416 12.6801 59.4027L12.7769 58.8217L13.2609 58.9185L12.7769 61.5328L6.82403 63.5178L6.53364 65.1154L10.599 65.8416C11.1798 65.9384 11.5186 65.5995 11.6638 64.7281L11.8574 63.5662L12.3413 63.663H12.4381ZM4.59775 59.79C4.16217 59.6931 3.77499 59.6931 3.43621 59.79C3.09743 59.8868 2.80704 60.0804 2.56505 60.3225C2.32307 60.5646 2.12948 60.9035 1.98428 61.2423C1.83909 61.5812 1.7423 62.017 1.6455 62.5495V62.84C1.45191 63.663 1.6455 64.1471 2.22627 64.244L6.09807 64.9217L6.34005 63.4693C6.38845 63.082 6.43685 62.7432 6.48525 62.4043C6.53364 62.0654 6.48525 61.7749 6.43685 61.4844C6.38845 61.1939 6.29166 60.9035 6.14646 60.6614C6.00127 60.4193 5.80768 60.2257 5.56569 60.0804C5.32371 59.8868 4.98493 59.79 4.59775 59.7416V59.79Z" fill="#FFDEAB"/>
<path d="M18.1974 46.6701L15.8744 51.7535L15.3904 51.5598L15.7292 50.7852C16.068 50.0106 16.0196 49.4781 15.4872 49.236L7.6952 45.7018C7.16282 45.4598 6.72725 45.7018 6.38846 46.5249L6.04968 47.2995L5.61411 47.1058L7.93718 42.0225L8.37276 42.2161L8.03398 42.9907C7.69519 43.7653 7.79199 44.2979 8.32436 44.4915L16.1163 48.0257C16.6487 48.2677 17.0843 48.0257 17.4231 47.2026L17.7619 46.428L18.2458 46.6217L18.1974 46.6701Z" fill="#FFDEAB"/>
<path d="M19.9882 26.4334C19.5526 26.0461 19.0202 26.2398 18.4878 26.8692L18.1007 27.3049L17.7135 27.0144L20.4237 23.6255L20.8109 23.9644L20.4237 24.4001C19.8914 25.0779 19.843 25.562 20.2785 25.9493L28.0221 32.1946L27.6349 32.6787L15.5356 31.662L22.2628 37.1327C22.6984 37.52 23.2308 37.3264 23.7632 36.697L24.1503 36.2613L24.5375 36.6002L21.8273 39.9891L21.4401 39.6502L21.8273 39.2145C22.3596 38.5367 22.408 38.0525 21.9724 37.6652L15.2936 32.2914C14.858 31.9041 14.3257 32.0978 13.7933 32.7271L13.4061 33.1628L13.0189 32.8239L15.0032 30.3549L25.8442 31.2747L19.8914 26.4334H19.9882Z" fill="#FFDEAB"/>
<path d="M33.3458 13.4587C32.7167 13.8944 32.2811 14.4754 32.0391 15.1531C31.7971 15.8309 31.7971 16.6055 31.9907 17.4285C32.1843 18.2516 32.5715 19.0746 33.1038 19.8976C33.6846 20.7206 34.3138 21.35 34.9913 21.8341C35.7173 22.3183 36.4433 22.5603 37.1692 22.6087C37.8952 22.6087 38.6211 22.4635 39.2503 22.0278C39.9279 21.5921 40.3151 21.0111 40.4118 20.4302C40.5086 19.8008 40.315 19.123 39.8311 18.4452L38.7179 16.8476L35.4753 19.0746L35.1849 18.6389L39.4439 15.6857L42.6381 20.2849L42.4445 20.6238L40.9442 19.4619C40.9926 20.9143 40.4118 22.0278 39.1535 22.8992C38.5727 23.2865 37.9436 23.5286 37.3144 23.6738C36.6368 23.7706 36.0077 23.7706 35.3785 23.577C34.7493 23.4318 34.1202 23.0929 33.5394 22.6571C32.9586 22.2214 32.4263 21.6889 31.9423 21.0111C31.3131 20.0913 30.8776 19.123 30.7324 18.1063C30.5872 17.0897 30.684 16.1698 31.0227 15.2984C31.3615 14.4269 31.9907 13.7008 32.8135 13.1198C33.1522 12.8777 33.491 12.6841 33.8298 12.5388C34.1686 12.3936 34.4106 12.2968 34.6526 12.2484C34.8461 12.1999 34.9913 12.1031 35.0881 12.0547C35.1849 12.0063 35.2817 11.8611 35.3301 11.7158L35.5237 11.2317H35.5721L38.1372 13.3134L37.9436 13.6523C37.9436 13.6523 37.5564 13.4103 37.4112 13.3619C37.266 13.265 37.0724 13.1682 36.8304 13.0714C36.5884 12.9746 36.3949 12.8777 36.2013 12.8293C36.0077 12.7809 35.7657 12.7325 35.5237 12.7325C35.2817 12.7325 35.0397 12.7325 34.7977 12.7325C34.5558 12.7325 34.3138 12.8293 34.0718 12.9261C33.8298 13.023 33.5394 13.1682 33.2974 13.3619L33.3458 13.4587Z" fill="#FFDEAB"/>
<path d="M58.3189 11.5707C59.8157 11.5707 61.0292 10.3569 61.0292 8.85956C61.0292 7.36225 59.8157 6.14844 58.3189 6.14844C56.8221 6.14844 55.6086 7.36225 55.6086 8.85956C55.6086 10.3569 56.8221 11.5707 58.3189 11.5707Z" fill="#FFDEAB"/>
</g>
<defs>
<clipPath id="clip0_167_663">
<rect width="151" height="151" fill="white"/>
</clipPath>
</defs>
</svg>
