<svg width="31" height="62" viewBox="0 0 31 62" fill="none" xmlns="http://www.w3.org/2000/svg">
<path d="M14.8078 46.9582C15.1618 44.9862 13.4526 46.6155 12.0402 46.3491C11.4311 46.2349 10.841 45.6067 10.2015 45.4925C6.66108 44.8606 3.05596 45.3631 0.566262 41.9331C2.33265 39.7099 2.43925 40.9281 0.573875 38.248C1.21343 37.3839 1.26673 37.5209 2.16896 37.6846C2.90749 37.8178 7.90593 39.9383 8.47696 40.3608C9.34112 41.0004 9.19265 42.1158 10.053 42.2034C10.0264 39.2911 12.5313 38.9789 14.804 40.0982C14.1682 38.4422 16.9092 37.5437 17.3013 36.8242C17.3889 36.6682 17.13 33.8777 17.4536 33.2344C20.7922 34.3878 23.8644 31.5784 26.9441 30.5962L25.6231 37.9968L22.7299 37.9892L24.8313 39.8241L19.7377 44.2667L17.4536 42.2072L18.5043 44.8377L16.7036 45.3212L16.3953 46.9544H29.8526C31.3563 48.3857 30.4046 50.9897 30.6635 52.9235C30.5569 53.2738 29.4719 53.8144 29.3272 53.8144H16.3991L15.6072 61.2073L14.8154 53.8144H1.35429C-0.545348 52.8512 -0.355003 46.9544 1.35429 46.9544H14.8116L14.8078 46.9582Z" fill="#D3AD73"/>
<path d="M7.94803 26.907C7.6549 26.8043 7.30847 27.1164 6.86307 26.5606C5.34793 24.661 4.59797 20.4239 6.36437 18.4634C6.02175 19.9747 6.66511 26.2941 7.94803 26.907Z" fill="#D3AD73"/>
<path d="M20.0838 24.7942C20.1713 24.5963 22.7829 22.59 22.9846 21.6383C24.7358 23.4237 26.8372 26.5073 26.3194 29.1493C25.836 31.6161 24.4579 30.6987 23.1369 31.2811C21.321 32.0844 20.2018 33.3825 17.773 32.644L16.3873 29.5604C20.1142 29.2254 19.3034 26.5796 20.0838 24.7942C19.627 25.6127 18.858 27.3486 18.5344 27.7293C17.0687 29.4653 14.0232 27.7484 13.7529 25.8525C12.3672 27.2116 9.67576 27.5238 7.94744 26.907C11.3546 28.5326 10.3496 17.6715 6.36378 18.4634C8.16443 16.4686 11.1719 16.9216 13.7529 16.8797C13.6844 19.7653 13.338 22.9859 13.7529 25.8525C13.7948 25.8107 14.1945 25.9972 14.2897 25.5099L15.3442 0L16.3873 4.48831L16.4634 17.0777L22.0329 20.8236C22.1014 21.4137 20.5444 23.9795 20.0876 24.798L20.0838 24.7942Z" fill="#D3AD73"/>
</svg>
