<svg width="47" height="78" viewBox="0 0 47 78" fill="none" xmlns="http://www.w3.org/2000/svg">
<g clip-path="url(#clip0_167_808)">
<path d="M34.8533 44.3479V77.7182L34.5785 78.0002H28.4411C28.5803 75.4189 27.9629 72.8602 28.4466 70.2978C30.766 70.5892 31.7388 67.348 29.7107 66.2651C28.7415 65.7481 28.2542 66.5152 28.4154 64.7724L28.1736 64.5148L16.899 64.4641L18.3574 62.1122C24.1339 64.1708 28.5565 57.6979 25.6563 52.5673C23.8884 49.439 17.9781 48.5911 14.761 46.8277C14.3231 46.587 11.3625 44.6882 11.2599 44.5021C11.1298 44.2671 11.2489 43.876 11.2178 43.5997L9.39119 44.6337C11.324 47.1661 14.1912 48.4144 17.0364 49.5687C20.7684 51.0821 25.0921 51.2626 24.1833 56.8087C23.8627 58.7714 21.8786 60.4559 19.9274 60.3337C19.4456 60.3036 18.5186 59.8261 18.1833 60.0404L14.8819 65.9719H27.1568V67.4759C30.4124 66.8085 30.5608 69.8767 27.1568 69.3559V77.628H5.17376V69.3559C4.32368 69.3559 2.62901 69.6642 2.62351 68.3238C2.61802 66.8949 4.46841 67.7767 5.00154 67.395L5.17376 65.9737H13.5097C14.4587 64.1294 16.179 61.9618 16.9393 60.093C17.0346 59.8599 17.128 59.6569 17.0822 59.3956C11.161 57.5419 1.98412 53.6352 0.316934 46.7994C-2.22965 36.3541 11.1848 33.4137 18.4655 32.2124L27.9702 42.6559L29.3425 41.0898L25.6948 37.1155L29.9104 32.7914C30.5626 32.4831 34.104 33.4739 34.9926 33.7766C44.0504 36.8579 48.1084 46.587 46.7398 55.895C46.192 59.6155 42.9621 62.193 39.3914 60.4728C36.5993 59.1286 37.6876 56.0491 37.792 53.669C37.9367 50.3771 37.5886 46.4949 34.8533 44.3554V44.3479Z" fill="#D3AD73"/>
<path d="M30.4564 22.1634H16.5326V13.3273C11.7326 11.7914 12.2969 4.06262 17.216 3.03049C17.7052 2.92897 18.3189 3.10005 18.733 2.89513C18.8814 2.82181 19.649 1.7032 20.0117 1.38736C22.9486 -1.18638 27.0304 -9.45553e-05 28.6207 3.46102C34.628 3.47794 35.8464 10.9623 30.4564 13.4213V22.1634Z" fill="#D3AD73"/>
<path d="M30.2732 23.2915C30.0057 32.5299 17.1115 32.4716 16.7158 23.2915H30.2732Z" fill="#D3AD73"/>
<path d="M11.4028 64.4637V59.5757L15.0688 60.9895C14.5705 61.6945 13.4804 64.3208 12.7732 64.46C12.3555 64.5427 11.8389 64.4205 11.4028 64.4637Z" fill="#D3AD73"/>
<path d="M27.3419 32.3193L24.3189 35.333L21.296 31.9433C23.3168 31.9001 25.3467 31.9809 27.3419 32.3193Z" fill="#D3AD73"/>
<path d="M5.17561 63.524C5.0895 63.0878 5.59515 62.9788 5.69225 62.6366C6.1063 61.1872 3.50842 60.0967 3.33438 58.3558C3.21529 57.1564 3.68064 56.0077 4.71576 55.4399C4.86965 55.94 4.35118 56.3198 4.26873 56.8594C3.90049 59.2771 6.3005 59.7151 6.46356 61.5481C6.56798 62.7231 6.19607 63.133 5.17561 63.5221V63.524Z" fill="#D3AD73"/>
<path d="M8.46971 59.0137C8.51368 59.4066 8.17657 59.7036 8.15459 60.074C8.07581 61.4351 10.2285 62.2041 9.61475 63.663C9.50849 63.9149 9.0578 64.5033 8.83612 64.1837C9.95002 62.8113 7.72039 62.2059 7.55733 60.7809C7.49138 60.2094 7.76436 59.0701 8.46787 59.0137H8.46971Z" fill="#D3AD73"/>
</g>
<defs>
<clipPath id="clip0_167_808">
<rect width="47" height="78" fill="white"/>
</clipPath>
</defs>
</svg>
