<svg width="58" height="51" viewBox="0 0 58 51" fill="none" xmlns="http://www.w3.org/2000/svg">
<path d="M45.3403 39.8694C44.9405 39.9036 44.5027 40.33 44.221 40.0216L36.5387 23.8157C44.4533 20.3553 50.6242 12.7682 51.732 4.11133H0.47998C1.58398 12.7872 7.77015 20.3363 15.677 23.8196L3.39985 49.6645C3.02297 50.6543 4.01657 51.1415 4.76272 50.5477L6.6357 46.6037L40.8824 46.4971C41.678 49.3028 43.9431 51.0273 46.9163 50.7837C53.6964 50.2241 53.5669 39.1575 45.3441 39.877L45.3403 39.8694ZM40.8177 44.9211H7.59885L17.1084 24.5352C18.9433 24.8817 20.7021 25.5212 22.5675 25.7573C26.7513 26.294 31.1787 25.8677 35.1188 24.3563L42.8468 40.9163C41.8379 42.1268 40.8367 43.2118 40.8177 44.9211Z" fill="#D3AD73"/>
<path d="M52.2152 0.62793H0V2.52756H52.2152V0.62793Z" fill="#D3AD73"/>
<path d="M53.7074 3.47559C53.1173 4.89175 53.0945 6.58961 52.5197 8.06288H57.107V3.47559H53.7074Z" fill="#D3AD73"/>
</svg>
