<svg width="78" height="60" viewBox="0 0 78 60" fill="none" xmlns="http://www.w3.org/2000/svg">
<g clip-path="url(#clip0_167_818)">
<path d="M64.3665 20.7927L21.3311 30.3438L35.1242 17.2889L35.3428 17.2291C42.7277 22.8499 51.8963 14.1671 47.0548 6.20251L48.8502 4.27148C56.9563 5.9654 62.4887 12.8895 64.3665 20.7927Z" fill="#D3AD73"/>
<path d="M64.5346 33.0747V39.6422L18.8094 50.1332V43.3098L64.5346 33.0747Z" fill="#D3AD73"/>
<path d="M64.5346 23.522V30.0895L18.8094 40.5805V33.7571L64.5346 23.522Z" fill="#D3AD73"/>
<path d="M32.5505 0.00663549C32.8161 -0.0394226 33.9609 0.149927 34.2837 0.228396C36.7835 0.832269 38.7974 3.05841 39.8178 5.3596C45.2124 4.95361 47.9306 11.9016 43.5061 15.2331C39.7136 18.0887 34.4434 14.8424 34.9662 10.1479C35.1511 8.48643 36.1278 7.29916 37.271 6.20741C36.4859 4.92802 35.6336 3.60769 34.1526 3.08741C33.2398 2.76671 31.6949 2.95606 31.4461 1.72955C31.3032 1.03015 31.8697 0.122634 32.5505 0.00322379V0.00663549Z" fill="#D3AD73"/>
</g>
<defs>
<clipPath id="clip0_167_818">
<rect width="78" height="60" fill="white"/>
</clipPath>
</defs>
</svg>
