<svg width="64" height="52" viewBox="0 0 64 52" fill="none" xmlns="http://www.w3.org/2000/svg">
<path d="M27.9769 41.7569H35.5526C33.6606 37.7254 31.8295 33.5074 38.0004 33.0278C41.3429 32.7689 56.0717 32.5329 58.5995 33.2942C62.2274 34.3906 60.0156 39.3586 59.0411 41.7531H63.2058V50.6574L62.6386 51.2246H0.327545L0.000152588 42.3775C0.384648 41.1973 3.79942 41.9701 4.87296 41.7531C3.61669 39.2292 1.40489 34.501 5.31456 33.2942C11.9614 33.3057 19.7464 32.4187 26.2905 33.0278C31.7724 33.5379 29.9717 38.4449 27.9807 41.7531L27.9769 41.7569ZM28.2739 35.0302C27.6838 34.6038 26.9795 34.6 26.2867 34.5429C21.4215 34.1394 11.337 34.0442 6.56702 34.5581C5.3945 34.6838 4.58745 34.8284 4.6179 36.1837C4.65597 38.0376 5.70667 41.2087 7.78903 41.677C10.0199 42.1795 22.16 42.0729 24.7639 41.7645C27.8818 41.3991 28.803 37.6265 28.2739 35.0302ZM58.9497 35.0302C58.5043 34.6038 57.5754 34.5962 56.9701 34.5429C51.9374 34.1127 42.6601 34.1241 37.6197 34.5429C36.6071 34.6266 35.3813 34.5962 35.3585 35.8677C35.328 37.7749 36.2988 41.1897 38.4725 41.677C40.6462 42.1643 52.8435 42.0729 55.4474 41.7645C58.3673 41.4219 60.2364 36.2674 58.9497 35.0302ZM1.46199 43.2721V49.7133H61.6907V43.2721H1.46199Z" fill="#D3AD73"/>
<path d="M48.5114 5.85005C48.1345 6.48961 48.5989 8.64811 48.4314 9.55796C51.1533 9.59602 53.9095 10.7114 56.0109 12.3979C59.4333 15.1503 64.4774 23.2665 56.9664 23.9708C52.5505 24.382 41.9331 24.4809 37.6237 23.967C33.3524 23.4569 34.0148 19.848 35.4804 16.8824C37.5932 12.5997 42.1272 9.67978 46.9125 9.56176C46.7754 8.52629 47.1713 6.94643 46.8554 6.02517C46.6536 5.44272 44.9291 4.84123 44.7159 3.22711C44.1144 -1.36018 52.0175 -0.811989 50.5366 3.89712C50.1255 5.20669 48.6903 5.5417 48.5076 5.85386L48.5114 5.85005ZM49.1852 2.86927C49.1852 2.08505 48.5494 1.4493 47.7652 1.4493C46.981 1.4493 46.3452 2.08505 46.3452 2.86927C46.3452 3.65348 46.981 4.28923 47.7652 4.28923C48.5494 4.28923 49.1852 3.65348 49.1852 2.86927ZM46.9163 11.0731C42.584 11.0312 37.2658 14.8038 36.1923 19.098C35.5832 21.5344 35.7812 22.2234 38.3736 22.4557C43.0561 22.8706 52.2954 22.8782 56.9703 22.4557C60.3317 22.1511 59.6503 20.6512 58.5996 18.1387C57.1225 14.5907 52.9959 11.0503 48.9986 11.0617C47.8528 11.0617 48.6408 12.7519 48.4314 13.5361C46.7336 14.3394 46.8135 12.3636 46.9125 11.0731H46.9163Z" fill="#D3AD73"/>
<path d="M17.7517 9.55868C21.9735 9.72238 26.3286 12.4519 28.43 16.1179C30.341 19.4566 31.2775 23.5109 26.2905 23.9715C21.4938 24.4131 12.1441 24.3827 7.3208 23.9715C2.49748 23.5604 2.85533 20.3207 4.6674 16.7461C6.73073 12.6841 11.6416 9.47874 16.2365 9.5663C16.0881 8.52702 16.4916 6.95477 16.1718 6.0259C15.833 5.03991 13.2139 4.85718 14.1237 1.97157C15.3609 -1.95713 21.9697 0.662001 19.3505 4.53741C18.8899 5.22264 17.9648 5.58049 17.8088 6.0259C17.489 6.94716 17.8887 8.52702 17.7517 9.56249V9.55868ZM18.3189 2.86999C18.3189 2.08578 17.6831 1.45002 16.8989 1.45002C16.1147 1.45002 15.4789 2.08578 15.4789 2.86999C15.4789 3.65421 16.1147 4.28996 16.8989 4.28996C17.6831 4.28996 18.3189 3.65421 18.3189 2.86999ZM16.2327 11.0738C11.5236 11.0814 6.55943 14.6713 5.23083 19.1977C4.53036 21.5884 4.70167 22.2242 7.31319 22.4564C13.6783 23.0236 21.1626 22.1595 27.5886 22.2394C29.7548 21.3372 27.7866 17.8386 26.9148 16.491C24.9733 13.4988 21.3492 11.2261 17.7517 11.07L17.5689 13.3541L16.2365 13.7234V11.0738H16.2327Z" fill="#D3AD73"/>
<path d="M2.21976 28.1174C1.33656 27.2608 4.81224 25.4906 5.43657 25.4868C6.35022 25.4868 6.95171 26.5527 7.73593 26.6137C8.661 26.6898 9.47948 25.6048 10.4236 25.5591C11.3677 25.5135 12.091 26.5718 13.0123 26.5756C13.8688 26.5756 14.6454 25.6124 15.3459 25.5515C16.191 25.4754 17.0361 26.5756 17.9346 26.5756C18.833 26.5756 19.5906 25.5135 20.5232 25.5591C21.4559 25.6048 22.2858 26.6898 23.2109 26.6137C23.9951 26.5489 24.5928 25.4868 25.5103 25.4868C26.8998 25.4868 27.8134 27.8395 30.1166 25.5173L31.3728 26.4119C31.3728 26.6746 28.7613 28.125 28.156 28.1554C26.7551 28.2316 26.1194 27.0971 25.5065 27.0971C24.9887 27.0971 24.4481 27.8813 23.8961 28.0298C21.8595 28.5856 20.8126 26.9068 20.2568 27.0134C19.701 27.12 19.522 28.342 17.5463 28.1478C16.2633 28.0222 16.0654 27.1085 15.6124 27.002C15.0984 26.8839 14.2914 28.6808 11.9654 28.026C11.4172 27.8699 10.8119 27.0743 10.3589 27.0971C10.0429 27.1162 9.33101 27.9879 8.42878 28.1136C6.67381 28.3534 6.1142 27.1009 5.43276 27.1009C4.80844 27.1009 3.45319 28.7189 2.21595 28.1174H2.21976Z" fill="#D3AD73"/>
<path d="M62.0676 26.9791C60.8037 26.8839 60.484 28.0298 59.2353 28.1554C57.2367 28.3534 57.1567 27.1542 56.5248 27.0058C56.0109 26.8877 55.2038 28.6846 52.8778 28.0298C52.3296 27.8737 51.7243 27.0781 51.2713 27.1009C50.9135 27.12 50.1787 28.1098 48.9834 28.1516C47.5634 28.2011 46.9467 27.1047 46.3452 27.1009C45.5724 27.1009 45.0052 28.5742 43.0294 28.0336C42.4774 27.8813 41.9368 27.1009 41.4191 27.1009C40.9014 27.1009 40.2656 27.9841 39.4966 28.1136C37.7188 28.4143 37.0145 27.1276 36.493 27.0971C35.9715 27.0667 34.4487 28.7303 33.2762 28.1136C32.3663 27.2304 35.5489 25.6277 36.1694 25.563C37.2582 25.4487 38.1414 26.6936 39.1197 26.6137C39.9953 26.5413 40.5321 25.3231 41.716 25.5211C42.5041 25.6505 43.0256 26.7012 44.0458 26.6137C44.8339 26.5451 45.4277 25.4868 46.3452 25.4868C47.2627 25.4868 47.8603 26.5489 48.6446 26.6137C49.5696 26.6898 50.3881 25.6048 51.3322 25.5591C52.2763 25.5135 52.9996 26.5718 53.9209 26.5756C54.8422 26.5794 55.6683 25.4754 56.5096 25.5515C57.21 25.6124 57.9866 26.5756 58.8432 26.5756C60.1147 26.5756 62.0448 23.9831 62.0638 26.9791H62.0676Z" fill="#D3AD73"/>
<path d="M31.0032 30.394H2.21939V31.9092H31.0032V30.394Z" fill="#D3AD73"/>
<path d="M61.6904 30.394H33.2797V31.9092H61.6904V30.394Z" fill="#D3AD73"/>
<path d="M6.47571 42.3244C6.40338 42.1112 4.18397 38.4186 4.11164 38.114C4.03931 37.8095 3.61674 34.4366 3.61674 34.4366L6.56707 34.5584L14.2874 33.6523L27.6876 34.2043C27.6876 34.2043 29.119 35.2284 29.0505 35.5862C28.982 35.9441 26.8273 42.3206 26.8273 42.3206H37.1477L35.3585 38.7383L34.9969 34.7982L37.7911 33.6523H56.3497L58.9459 35.0304L59.7873 35.8032C59.7873 35.8032 59.6807 39.1685 59.3609 40.4629C59.0411 41.7572 57.7125 41.8942 57.5679 42.3244C57.4232 42.7546 61.6869 42.3244 61.6869 42.3244V43.2723L62.0638 48.4878L62.631 51.2249L1.09659 50.3493V42.4386L6.4719 42.3244H6.47571Z" fill="#D3AD73"/>
<path d="M16.899 10.3657L12.1366 11.4393L7.11916 14.6637L4.11172 19.5365V21.832L5.68777 22.7723L11.4209 23.3358H22.4571L28.5709 22.6505L29.3361 20.3969L28.1179 16.8488L25.179 13.2323L20.8087 11.0586L16.899 10.3657Z" fill="#D3AD73"/>
<path d="M48.3248 10.3657H44.8148L39.725 12.8745L37.3609 15.3832L35.3585 19.9667L36.2151 22.7723L42.3784 23.3358H54.2711L59.4599 22.6505L60.1489 19.9667L57.1491 13.4455L51.6215 10.7236L48.3248 10.3657Z" fill="#D3AD73"/>
</svg>
