<svg width="88" height="64" viewBox="0 0 88 64" fill="none" xmlns="http://www.w3.org/2000/svg">
<path d="M74.4763 57.9515H70.9968C70.8103 47.2199 63.562 37.265 53.6488 33.4276C52.4801 32.9746 50.4016 32.217 49.1948 32.1447C48.6809 32.1142 48.6238 32.2018 49.1643 32.3807C59.3021 35.7117 66.9691 44.4714 68.1074 55.2106C68.1569 55.6636 68.4652 57.9477 68.0312 57.9477H12.7477C12.6449 57.9477 12.4089 57.6089 12.4356 57.4376C13.7642 38.5745 30.9598 25.1248 49.7125 28.7642C63.3907 31.4176 74.2555 43.927 74.4801 57.9477L74.4763 57.9515Z" fill="#D3AD73"/>
<path d="M86.6628 59.1771C87.3137 59.2837 87.3785 60.1136 86.9749 60.5134C86.2364 61.2519 78.8587 61.2519 77.0961 61.6897C75.8398 62.0019 75.3145 62.7785 74.1762 63.0716L12.2877 62.9117L10.6546 61.8838C7.35783 61.0539 3.86311 61.3471 0.509249 60.7684C-0.316845 60.422 0.00673059 59.1733 0.463556 59.1733H86.6628V59.1771Z" fill="#D3AD73"/>
<path d="M46.7665 24.919C46.5572 25.2083 46.1308 25.3758 45.8491 25.9392C45.613 26.4151 45.5597 26.9252 45.377 27.4125L41.513 27.4391C41.9242 25.3872 38.8939 24.9951 40.6907 23.2401C41.6843 22.2694 43.1386 22.1514 44.4634 22.3379C45.5483 22.4902 47.6802 23.6437 46.7665 24.919Z" fill="#D3AD73"/>
<path d="M45.8109 18.0213C45.4111 17.9033 45.8109 17.1723 45.7728 16.7498C45.5863 14.7473 43.4011 12.2653 42.4304 10.4494C40.4736 6.79858 39.8455 3.49421 43.6638 0.821777C43.7209 1.45753 42.891 1.94861 42.5293 2.55391C41.4748 4.32791 41.8327 6.44073 42.5674 8.26423C43.8503 11.462 47.4935 14.321 45.8109 18.0175V18.0213Z" fill="#D3AD73"/>
<path d="M36.3925 1.23682C36.0765 2.06291 35.3456 2.57684 35.0601 3.48668C33.9256 7.11083 36.7655 10.0383 38.2731 12.9772C39.0877 14.5647 39.8453 16.0951 38.7489 17.8234C38.5928 12.7488 33.2099 10.0536 33.9561 4.63636C34.1121 3.4981 35.2314 1.62893 36.3925 1.24062V1.23682Z" fill="#D3AD73"/>
<path d="M50.3181 1.23662C48.3233 3.67303 48.4071 5.97238 49.6671 8.74379C50.9272 11.5152 54.3001 14.4237 52.7736 17.8194L52.1987 15.2269C50.4932 11.5913 46.4618 7.9177 48.2358 3.55501C48.3804 3.19336 49.907 0.833094 50.3219 1.24043L50.3181 1.23662Z" fill="#D3AD73"/>
</svg>
